<svg xmlns="http://www.w3.org/2000/svg" width="125" height="27" viewBox="0 0 125 27">
  <g id="Component_92" data-name="Component 92" transform="translate(-19.5 -14.414)">
    <g id="Group_902" data-name="Group 902" transform="translate(7830.5 6487.413)">
      <g id="Group_900" data-name="Group 900" transform="translate(-7779.413 -6468.687)">
        <path id="Path_2443" data-name="Path 2443" d="M813.331,474.89a1.6,1.6,0,0,1,.6,1.39,3.087,3.087,0,0,1-.416,1.6,3.916,3.916,0,0,1-1.21,1.173,8.563,8.563,0,0,1-4.675,1.07,6.376,6.376,0,0,1-4.592-1.573,5.656,5.656,0,0,1-1.6-4.31,11.826,11.826,0,0,1,2.064-6.841,8.336,8.336,0,0,1,4.305-3.1,8.9,8.9,0,0,1,2.825-.453,10.954,10.954,0,0,1,2.26.2,5.332,5.332,0,0,1,1.515.568,2.424,2.424,0,0,1,1.409,2.129,2.593,2.593,0,0,1-1.129,2.069,3.167,3.167,0,0,1-1.871.785,4.347,4.347,0,0,1-1.191-.123,13.477,13.477,0,0,0,.106-1.387c0-.366-.005-.679-.019-.944a3.3,3.3,0,0,0-.135-.77q-.231-.867-.939-.872a2.115,2.115,0,0,0-1.428.66,7,7,0,0,0-1.325,1.775,11.419,11.419,0,0,0-1.4,5.544,3.073,3.073,0,0,0,.8,2.277,3.453,3.453,0,0,0,2.559.839,4.356,4.356,0,0,0,2.545-.849A4.454,4.454,0,0,0,813.331,474.89Z" transform="translate(-801.443 -462.805)" fill="#fff"/>
        <path id="Path_2444" data-name="Path 2444" d="M840.345,476.4a1.293,1.293,0,0,0,1.043,1.334,2.132,2.132,0,0,1-1.269,1.322,3.958,3.958,0,0,1-1.758.384,3.158,3.158,0,0,1-1.4-.245,1.891,1.891,0,0,1-.729-.646,3.028,3.028,0,0,1-.415-1.749,16.236,16.236,0,0,1,.387-2.544l.338-1.769a17.77,17.77,0,0,0,.41-2.774q0-1.3-.72-1.309-.906,0-1.5,1.323a6.334,6.334,0,0,0-.4,1.278l-1.626,7.944-4.692.443,3.374-16.768,4.689-.446-.188.933a23.435,23.435,0,0,1-1.242,4.794,5.021,5.021,0,0,1,3.716-1.283q2.541.014,3,1.692a3.544,3.544,0,0,1,.16,1,7.918,7.918,0,0,1-.043.833c-.019.237-.073.576-.154,1.008l-.312,1.68-.547,2.628A4.166,4.166,0,0,0,840.345,476.4Z" transform="translate(-814.2 -462.002)" fill="#fff"/>
        <path id="Path_2445" data-name="Path 2445" d="M862.957,477.588a2.925,2.925,0,0,1-3.038,1.731,2.485,2.485,0,0,1-1.927-.826,2.2,2.2,0,0,1-.625-1.449,26.758,26.758,0,0,1,.891-5.568l.888-4.517,4.731-.445-1.459,7.362a12.57,12.57,0,0,0-.409,2.333C862.007,477.091,862.319,477.552,862.957,477.588Zm-3.373-13.869a1.565,1.565,0,0,1,.76-1.395,3.348,3.348,0,0,1,1.855-.481,2.921,2.921,0,0,1,1.762.5,1.648,1.648,0,0,1,.655,1.4,1.534,1.534,0,0,1-.741,1.372,3.373,3.373,0,0,1-1.832.455,3.178,3.178,0,0,1-1.785-.472A1.552,1.552,0,0,1,859.584,463.72Z" transform="translate(-828.288 -461.844)" fill="#fff"/>
        <path id="Path_2446" data-name="Path 2446" d="M877.528,477.892a2.934,2.934,0,0,1-3.041,1.733,2.465,2.465,0,0,1-1.9-.829,2.108,2.108,0,0,1-.6-1.447,29.808,29.808,0,0,1,.843-5.567l1.745-8.944,4.741-.443-2.325,11.785a13.008,13.008,0,0,0-.409,2.331C876.576,477.4,876.893,477.857,877.528,477.892Z" transform="translate(-835.304 -462.109)" fill="#fff"/>
        <path id="Path_2447" data-name="Path 2447" d="M892.058,477.735a2.935,2.935,0,0,1-3.045,1.731,2.485,2.485,0,0,1-1.927-.826,2.2,2.2,0,0,1-.622-1.45,26.718,26.718,0,0,1,.891-5.565l.885-4.514,4.737-.445-1.456,7.361a12.691,12.691,0,0,0-.413,2.332Q891.1,477.684,892.058,477.735Zm-3.38-13.865a1.586,1.586,0,0,1,.765-1.4,3.384,3.384,0,0,1,1.858-.481,2.918,2.918,0,0,1,1.758.5,1.641,1.641,0,0,1,.656,1.4,1.53,1.53,0,0,1-.743,1.373,3.391,3.391,0,0,1-1.831.458,3.163,3.163,0,0,1-1.78-.477A1.565,1.565,0,0,1,888.678,463.871Z" transform="translate(-842.255 -461.915)" fill="#fff"/>
        <path id="Path_2448" data-name="Path 2448" d="M910.34,483.887c-1.882-.009-2.815-.746-2.809-2.206a12.019,12.019,0,0,1,.219-1.628l.434-2.146a28.055,28.055,0,0,0,.643-3.7c0-.9-.259-1.35-.787-1.355q-1.326-.006-2.046,3.464l-1.41,7.078-4.688.445,2.494-12.37,3.821-.425-.384,2.285q1.1-2.281,4.463-2.262a3.226,3.226,0,0,1,2.316.7,3.076,3.076,0,0,1,.677,2.233,26.152,26.152,0,0,1-.773,4.819,11.252,11.252,0,0,0-.36,2.088,1.259,1.259,0,0,0,.314.9,1.208,1.208,0,0,0,.777.375,2.129,2.129,0,0,1-1.047,1.254A3.6,3.6,0,0,1,910.34,483.887Z" transform="translate(-848.702 -466.259)" fill="#fff"/>
        <path id="Path_2449" data-name="Path 2449" d="M936.536,467.15a5.507,5.507,0,0,1,1.5.193c.015-.06.04-.177.068-.35l.125-.717c.061-.314.143-.73.235-1.241l.381-1.839,4.651-.441-2.666,13.513a2.666,2.666,0,0,0-.019.371l0,.371a1.587,1.587,0,0,0,.248.9.8.8,0,0,0,.679.394,2.866,2.866,0,0,1-1.9,1.547,4.223,4.223,0,0,1-1.178.137,2.672,2.672,0,0,1-1.318-.367,1.7,1.7,0,0,1-.808-.976,2.573,2.573,0,0,1-1.122.96,4.1,4.1,0,0,1-1.834.355,6.642,6.642,0,0,1-1.982-.289,3.243,3.243,0,0,1-1.454-.892,5.971,5.971,0,0,1-1-3.9,7.723,7.723,0,0,1,2.082-5.6A6.987,6.987,0,0,1,936.536,467.15Zm-.168,1.4a1.447,1.447,0,0,0-1.333.93,14.683,14.683,0,0,0-.962,3.234,21.806,21.806,0,0,0-.5,4.377c-.007.952.273,1.423.831,1.423a1.512,1.512,0,0,0,1.276-.735,4.837,4.837,0,0,0,.74-1.977l1.292-6.824A1.99,1.99,0,0,0,936.368,468.548Z" transform="translate(-862.736 -462.281)" fill="#fff"/>
        <path id="Path_2450" data-name="Path 2450" d="M962.212,484.163q-5.124-.025-5.1-4.851a8.382,8.382,0,0,1,1.914-5.633,6.81,6.81,0,0,1,5.495-2.327,5.457,5.457,0,0,1,3.793,1.188,4.646,4.646,0,0,1,1.266,3.616,8.328,8.328,0,0,1-2.041,5.89A6.831,6.831,0,0,1,962.212,484.163Zm.662-10.14a8.706,8.706,0,0,0-.511,1.572c-.151.627-.32,1.438-.513,2.435a18.117,18.117,0,0,0-.3,3.331,2.128,2.128,0,0,0,.193,1,.741.741,0,0,0,.731.4,1.417,1.417,0,0,0,.878-.252,2.1,2.1,0,0,0,.6-.864,14.517,14.517,0,0,0,.85-3.057,22.791,22.791,0,0,0,.428-2.857c.025-.571.035-1.074.042-1.5a2.66,2.66,0,0,0-.183-1.062.7.7,0,0,0-.705-.423,1.2,1.2,0,0,0-.876.323A2.814,2.814,0,0,0,962.874,474.023Z" transform="translate(-876.167 -466.407)" fill="#fff"/>
      </g>
      <path id="Path_2455" data-name="Path 2455" d="M753.222,453.677a13.5,13.5,0,1,0,13.427,13.5A13.464,13.464,0,0,0,753.222,453.677Zm7.1,19.81-.935.945a1.324,1.324,0,0,1-1.856-.189l-3.454-3.44a1.374,1.374,0,0,1-.255-1.8l-2.1-1.995-1.517,1.6a1.169,1.169,0,0,1-.059,1.631,1.158,1.158,0,0,1-1.645.024l-3.94-4.01a1.173,1.173,0,0,1,.042-1.654,1.16,1.16,0,0,1,1.628-.036l4.232-4.46a1.169,1.169,0,0,1,.116-1.557,1.158,1.158,0,0,1,1.642-.023l3.942,4.014a1.171,1.171,0,0,1-.044,1.654,1.155,1.155,0,0,1-1.644.018l-.05-.051-1.724,1.811,2.063,2.06.042-.043a1.329,1.329,0,0,1,1.861.194l3.449,3.44A1.343,1.343,0,0,1,760.326,473.487Z" transform="translate(-8550.793 -6926.677)" fill="#fff"/>
    </g>
  </g>
</svg>
